<svg id="Capa_1" enable-background="new 0 0 512 512" height="512" viewBox="0 0 512 512" width="512" xmlns="http://www.w3.org/2000/svg"><g><path d="m331.982 43.681c0 11.869-4.687 22.976-13.193 31.271l-62.789 60.878-62.78-60.869c-8.515-8.305-13.202-19.411-13.202-31.28 0-24.086 19.595-43.681 43.684-43.681 12.335 0 24.068 5.259 32.298 14.288 8.23-9.029 19.963-14.288 32.298-14.288 24.089 0 43.684 19.595 43.684 43.681z" fill="#ff3f5c"/><path d="m331.982 43.681c0 11.869-4.687 22.976-13.193 31.271l-62.789 60.878v-121.542c8.23-9.029 19.963-14.288 32.298-14.288 24.089 0 43.684 19.595 43.684 43.681z" fill="#dd0056"/><g><path d="m443.97 279.27v25.73h-375.94v-25.73c0-90.81 67.75-164.43 151.33-164.43h73.28c41.79 0 79.62 18.4 107.01 48.16 27.38 29.76 44.32 70.86 44.32 116.27z" fill="#f2cecd"/><path d="m443.97 279.27v25.73h-187.97v-190.16h36.64c41.79 0 79.62 18.4 107.01 48.16 27.38 29.76 44.32 70.86 44.32 116.27z" fill="#e8b4b5"/><path d="m425.048 231c-31.121 0-57.785 28.486-59.506 62.641 1.721-34.155-22.072-62.641-53.193-62.641-31.121 0-56.349 28.486-56.349 62.641 0-34.155-25.228-62.641-56.349-62.641-31.121 0-54.914 28.486-53.193 62.641-1.721-34.155-28.385-62.641-59.506-62.641-31.121 0-53.479 28.486-50.036 62.641l42.006 218.359h88.539 88.539 88.539 88.539l42.006-218.358c3.443-34.156-18.915-62.642-50.036-62.642z" fill="#873a62"/><g><g><g><path d="m425.048 231c31.121 0 53.479 28.486 50.036 62.641l-42.006 218.359h-88.539l21.003-218.358c1.721-34.156 28.385-62.642 59.506-62.642z" fill="#66335b"/></g><g><path d="m312.349 231c31.121 0 54.914 28.486 53.193 62.641l-21.003 218.359h-88.539v-218.359c0-34.155 25.228-62.641 56.349-62.641z" fill="#3c1b49"/></g><g><path d="m199.65 231c31.122 0 56.35 28.486 56.35 62.641v218.359h-88.539l-21.003-218.358c-1.721-34.156 22.072-62.642 53.192-62.642z" fill="#66335b"/></g><g><path d="m86.952 231c31.121 0 57.785 28.486 59.506 62.641l21.003 218.359h-88.539l-42.007-218.358c-3.442-34.156 18.916-62.642 50.037-62.642z" fill="#873a62"/></g></g></g></g><g fill="#fff0f0"><path d="m136.166 180.061h30v30.084h-30z"/><path d="m191.666 155.52h30v30.083h-30z"/></g></g></svg>