<svg id="icons" enable-background="new 0 0 64 64" height="512" viewBox="0 0 64 64" width="512" xmlns="http://www.w3.org/2000/svg"><g><g><path d="m47.99 41.508c.55 0 1 .45 1 1v19.991c0 .55-.45 1-1 1h-31.98c-.55 0-1-.45-1-1v-19.991c0-.55.45-1 1-1z" fill="#967adc"/></g><g><path d="m49.99 35.519c.55 0 1 .45 1 1v4.99c0 .55-.45 1-1 1h-30.913c-.55 0-1.45 0-2 0h-3.067c-.55 0-1-.45-1-1v-4.99c0-.55.45-1 1-1h15.711 2z" fill="#ac92ec"/></g><g><path d="m36.99 19.499v-5h-2v-4h-2.99-3v4h-2v5zm7.01-6c0 5.87-4.22 10.75-9.8 11.79l-2.21 2.21-2.21-2.21c-5.57-1.04-9.78-5.92-9.78-11.79 0-6.62 5.37-12 12-12 6.62 0 12 5.38 12 12z" fill="#ec87c0"/></g><g><path d="m34.99 10.499v4h-5.99v-4h3z" fill="#ccd1d9"/></g><g><path d="m36.99 14.499v5h-9.99v-5h2 5.99z" fill="#e6e9ed"/></g><g><path d="m28 42.509h8v20.99h-8z" fill="#ccd1d9"/></g><g><path d="m36 42.499v.01h-8v-6.99h8z" fill="#e6e9ed"/></g><g><path d="m32 31.519c2.21 0 4 1.79 4 4h-8c0-2.21 1.79-4 4-4z" fill="#e6e9ed"/></g><g><path d="m44 27.519c2.21 0 4 1.79 4 4 0 2.211-1.79 4-4 4h-8c0-4.42 3.58-8 8-8z" fill="#ccd1d9"/></g><g><path d="m20 27.519c4.42 0 8 3.58 8 8h-8c-2.21 0-4-1.789-4-4 0-2.21 1.79-4 4-4z" fill="#ccd1d9"/></g><g><path d="m31.995 11.5c-.553 0-1-.447-1-1v-2c0-.553.447-1 1-1s1 .447 1 1v2c0 .553-.447 1-1 1z" fill="#656d78"/></g><g><path d="m31.995 7.5c-.553 0-1-.447-1-1v-1c0-.553.447-1 1-1s1 .447 1 1v1c0 .553-.447 1-1 1z" fill="#ffce54"/></g><g><path d="m31.994 28.499c-.256 0-.512-.098-.707-.293l-1.997-1.996c-5.983-1.267-10.294-6.562-10.294-12.709 0-7.168 5.832-13 13-13s13 5.832 13 13c0 6.15-4.313 11.445-10.3 12.71l-1.995 1.995c-.195.195-.451.293-.707.293zm.002-25.998c-6.065 0-11 4.935-11 11 0 5.29 3.772 9.834 8.971 10.804.198.037.381.134.523.276l1.504 1.504 1.503-1.503c.143-.143.325-.239.524-.276 5.2-.968 8.975-5.512 8.975-10.805 0-6.065-4.934-11-11-11z" fill="#ec87c0"/></g><g><path d="m34.993 15.499h-5.996c-.553 0-1-.447-1-1v-3.999c0-.553.447-1 1-1h5.996c.553 0 1 .447 1 1v3.999c0 .553-.447 1-1 1zm-4.996-2h3.996v-1.999h-3.996z" fill="#ccd1d9"/></g><g><path d="m36.993 20.5h-9.996c-.553 0-1-.447-1-1v-5c0-.553.447-1 1-1h9.996c.553 0 1 .447 1 1v5c0 .553-.447 1-1 1zm-8.996-2h7.996v-3h-7.996z" fill="#e6e9ed"/></g><g><path d="m37.993 20.5h-11.996c-.553 0-1-.447-1-1s.447-1 1-1h11.996c.553 0 1 .447 1 1s-.447 1-1 1z" fill="#656d78"/></g></g></svg>